<svg width="40" height="40" viewBox="0 0 40 40" fill="none" xmlns="http://www.w3.org/2000/svg"> <path d="M19.6422 8.17889L4.43108 15.7845C3.84144 16.0793 3.84144 16.9207 4.43108 17.2155L19.6422 24.8211C19.8675 24.9337 20.1325 24.9337 20.3578 24.8211L35.5689 17.2155C36.1586 16.9207 36.1586 16.0793 35.5689 15.7845L20.3578 8.17889C20.1325 8.06627 19.8675 8.06627 19.6422 8.17889Z" fill="currentColor"></path> <path d="M5 21L19.5771 27.8027C19.8452 27.9277 20.1548 27.9277 20.4229 27.8027L35 21" stroke="currentColor" stroke-width="2" stroke-linecap="round"></path> <path d="M5 25L19.5771 31.8027C19.8452 31.9277 20.1548 31.9277 20.4229 31.8027L35 25" stroke="currentColor" stroke-width="2" stroke-linecap="round"></path> </svg>