<svg width="40" height="40" viewBox="0 0 40 40" fill="none" xmlns="http://www.w3.org/2000/svg"> <path fill-rule="evenodd" clip-rule="evenodd" d="M20 6C20.8569 6 21.6635 6.21557 22.3685 6.59545C23.3376 6.21119 24.3941 6 25.5 6C30.1944 6 34 9.80558 34 14.5C34 17.9467 31.9485 20.9143 29 22.2483V29H11V22.2483C8.05148 20.9143 6 17.9467 6 14.5C6 9.80558 9.80558 6 14.5 6C15.6059 6 16.6624 6.21119 17.6315 6.59544C18.3365 6.21557 19.1431 6 20 6ZM29 32V30H11V32C11 32.5523 11.4477 33 12 33H28C28.5523 33 29 32.5523 29 32Z" fill="currentColor"></path> </svg>