<?xml version="1.0"?>
<svg xmlns="http://www.w3.org/2000/svg" xmlns:xlink="http://www.w3.org/1999/xlink" xmlns:svgjs="http://svgjs.com/svgjs" version="1.1" width="512" height="512" x="0" y="0" viewBox="0 0 512 512" style="enable-background:new 0 0 512 512" xml:space="preserve" class=""><g><g xmlns="http://www.w3.org/2000/svg"><path d="m347.454 483.818c-.056 0-.111 0-.167-.002h-182.575c-.11.003-.222.003-.333 0h-149.388c-8.266 0-14.991-6.725-14.991-14.992v-68.901c0-4.142 3.358-7.5 7.5-7.5 19.529 0 34.132 5.834 42.324 16.314 8.191-10.48 22.794-16.314 42.324-16.314 31.198 0 49.824 14.888 49.824 39.824v36.575h17.68l39.244-89.239h-108.152c-4.142 0-7.5-3.358-7.5-7.5s3.358-7.5 7.5-7.5h119.479c.112-.003.226-.003.338 0h90.879c.113-.003.225-.003.338 0h43.132c4.143 0 7.5 3.358 7.5 7.5s-3.357 7.5-7.5 7.5h-31.806l39.243 89.235h17.682v-36.571c0-24.937 18.626-39.824 49.823-39.824 19.529 0 34.133 5.834 42.324 16.314 8.191-10.48 22.795-16.314 42.324-16.314 4.143 0 7.5 3.358 7.5 7.5v68.901c0 8.266-6.725 14.991-14.991 14.991h-149.388c-.056.002-.111.003-.167.003zm-332.454-76.043v61.049h27.324v-36.577c0-17.348-13.538-23.107-27.324-24.472zm77.148-.352c-15.886 0-34.824 4.307-34.824 24.824v36.576l69.648-.001v-36.575c0-20.517-18.937-24.824-34.824-24.824zm123.135-27.84-39.244 89.238 159.921-.003-39.242-89.235zm204.569 27.84c-15.886 0-34.823 4.307-34.823 24.824v36.57l69.647-.001v-36.569c0-20.517-18.938-24.824-34.824-24.824zm77.149.352c-13.786 1.365-27.325 7.124-27.325 24.472v36.569h27.333zm-75.745-28.192h-36.173c-4.143 0-7.5-3.358-7.5-7.5s3.357-7.5 7.5-7.5h36.173c4.143 0 7.5 3.358 7.5 7.5s-3.358 7.5-7.5 7.5zm39.058-39.74c-.037 0-.073 0-.11-.001h-408.408c-.074 0-.147 0-.221 0h-44.075c-4.142 0-7.5-3.358-7.5-7.5v-289.167c0-8.266 6.725-14.991 14.991-14.991h152.1c2.441 0 4.729 1.188 6.133 3.184 1.405 1.996 1.75 4.55.927 6.848-.227.633-3.083 8.478-9.12 19.969h181.938c-6.037-11.491-8.893-19.335-9.119-19.969-1.398-3.899.629-8.193 4.528-9.591 3.894-1.395 8.188.626 9.589 4.522.104.288 10.672 29.135 34.904 57.477 15.394 18.004 32.543 31.741 51.319 41.148.727.229 1.408.566 2.023.994 17.558 8.454 36.519 13.168 56.786 14.096v-103.687l-111.917.009c-4.143 0-7.5-3.358-7.5-7.5s3.357-7.5 7.5-7.5h111.926c8.267 0 14.991 6.725 14.991 14.991v289.167c0 4.142-3.357 7.5-7.5 7.5h-44.075c-.035 0-.072.001-.11.001zm6.624-15.001h30.062v-162.973c-18.16-.787-35.563-4.441-51.979-10.849l18.201 144.348c.01.07.019.141.026.212zm-406.757 0h391.639l-2.638-20.92h-35.126c-.072.001-.145.001-.217 0h-315.678c-.073 0-.146 0-.218 0h-35.124zm-45.181 0h30.062l21.918-173.821c-16.417 6.407-33.825 10.061-51.985 10.848zm405.578-35.92h26.712l-17.979-142.583c-9.552-.251-18.485-1.042-26.838-2.266zm-314.035 0h298.917l-18.466-147.735c-32.042-7.316-54.036-21.063-68.137-33.198-16.091-13.846-24.733-27.759-28.449-34.806h-26.908v24.754l54.589 27.414c2.534 1.272 4.134 3.866 4.134 6.702v19.832c0 .098-.002.196-.006.294-.197 5.027-4.498 8.856-12.781 11.38-1.386.422-2.903.817-4.548 1.185v17.141c0 .069-.001.138-.003.208-.059 2.113-1.129 7.434-9.788 11.177-1.586.686-3.387 1.303-5.402 1.852v16.764c0 .043 0 .087-.001.131-.067 3.84-2.695 16.369-33.693 16.369s-33.626-12.529-33.693-16.369c0-.043-.001-.087-.001-.131v-16.765c-2.015-.548-3.816-1.166-5.402-1.851-8.659-3.743-9.729-9.063-9.788-11.177-.002-.069-.003-.138-.003-.207v-17.141c-1.646-.368-3.162-.763-4.548-1.185-8.284-2.524-12.584-6.353-12.781-11.381-.004-.098-.006-.196-.006-.293v-19.832c0-2.836 1.6-5.43 4.134-6.702l54.587-27.415v-24.754h-26.909c-3.716 7.047-12.359 20.96-28.449 34.806-14.101 12.134-36.095 25.881-68.137 33.198l-6.329 50.629c-.513 4.11-4.256 7.028-8.372 6.512-4.11-.514-7.025-4.262-6.512-8.372l5.735-45.882c-8.353 1.223-17.286 2.014-26.838 2.266l-17.979 142.582h26.716l7.595-60.453c.517-4.109 4.269-7.021 8.376-6.506 4.109.516 7.023 4.267 6.506 8.376zm130.763-78.789c1.353.935 5.994 3.253 18.694 3.253s17.342-2.318 18.694-3.253v-12.511c-5.484.509-11.723.764-18.694.764s-13.21-.255-18.694-.764zm-15.193-30.961c2.607 1.342 10.873 4.213 33.887 4.213 23.015 0 31.281-2.871 33.888-4.213v-12.165c-9.264.917-20.585 1.378-33.888 1.378s-24.624-.461-33.887-1.378zm-17.335-30.704c3.87 1.582 16.188 4.918 51.222 4.918 35.035 0 47.353-3.336 51.223-4.918v-11.788l-51.223-25.724-51.222 25.724zm-189.787-105.285.003 103.677c20.267-.927 39.233-5.643 56.792-14.096.615-.428 1.296-.765 2.024-.994 18.776-9.408 35.926-23.144 51.319-41.148 15.518-18.149 25.433-36.508 30.584-47.439zm381.05 84.675c3.408.65 6.885 1.213 10.423 1.686-11.176-8.321-21.657-18.197-31.338-29.577-7.846-9.223-14.319-18.415-19.545-26.783h-47.724c4.278 6.496 11.167 15.278 21.428 23.985 17.788 15.095 39.585 25.248 65.103 30.366.568.045 1.123.155 1.653.323zm-239.622-54.675c-5.225 8.368-11.699 17.561-19.544 26.783-9.66 11.355-20.116 21.212-31.265 29.522 59.327-8.111 87.563-39.714 98.532-56.306h-47.723z" fill="#6a6a6a" data-original="#000000" style=""/></g></g></svg>
